<svg width="866" height="926" viewBox="0 0 866 926" fill="#37b067" xmlns="http://www.w3.org/2000/svg">
<path d="M312.871 205.337C315.917 180.095 312 174.437 317.223 166.604C321.575 160.076 325.927 161.381 342.464 152.242C342.464 152.242 352.909 146.149 369.882 133.093C386.855 120.037 422.976 84.3508 436.903 34.738C439.514 25.5988 441.255 16.4597 449.088 9.49647C460.839 -0.948331 480.423 -2.68908 495.22 3.83892C510.016 10.8021 516.544 24.7285 519.156 29.9509C586.612 171.391 620.557 241.893 627.956 256.255C627.956 256.255 634.048 267.57 637.53 284.108C640.141 295.858 642.753 308.044 637.095 313.701C630.132 320.229 614.464 314.137 608.372 311.961C546.138 287.589 464.32 237.106 458.228 243.199C448.653 253.209 623.604 429.465 658.42 441.65C660.596 442.521 670.605 445.567 678.874 454.706C687.143 463.845 689.319 473.855 690.189 477.772C701.505 524.773 745.46 561.33 731.098 594.841C729.792 598.322 726.746 605.286 719.783 608.767C701.505 617.471 673.652 593.1 662.772 584.396C651.892 575.257 552.666 494.745 470.413 494.745C412.096 494.745 362.048 535.218 364.66 546.533C367.271 556.543 415.143 561.766 447.348 555.673C449.524 555.237 465.191 552.191 485.21 554.367C497.831 555.673 504.359 556.543 508.711 560.895C521.332 573.516 514.804 608.767 495.22 620.082C492.608 621.388 487.386 623.999 466.496 622.258C424.282 618.777 415.578 605.285 385.984 607.461C369.882 608.332 366.4 612.684 356.826 609.202C338.112 602.239 339.418 580.914 326.797 577.433C321.575 576.127 308.954 576.127 266.304 637.055C236.711 679.27 221.914 700.594 227.572 707.993C237.581 721.484 290.676 689.279 355.52 666.213C558.759 595.276 758.951 660.556 823.796 685.797C842.074 692.761 856.436 699.289 864.705 703.205C867.316 726.271 867.751 759.346 848.602 773.708C811.61 801.125 742.849 731.494 636.224 707.122C550.925 687.538 483.034 706.687 377.28 738.457C214.515 786.764 96.141 875.545 80.4738 902.962C79.6034 904.703 73.5106 911.666 64.8066 918.629C53.0562 928.639 32.6018 921.241 20.4162 912.537C-1.77899 896.434 -3.95499 862.924 4.74901 841.599C11.277 825.062 23.8978 815.922 27.3794 813.311C36.9538 805.913 207.552 679.705 191.885 627.916C187.098 611.378 164.903 608.332 118.771 563.506C113.984 559.154 104.845 549.58 105.28 537.829C105.715 525.644 117.031 516.505 120.512 513.893C182.746 463.41 303.296 261.913 310.26 221.439C312.436 209.689 312.871 205.337 312.871 205.337ZM298.074 348.517C295.463 347.647 292.416 350.258 290.676 352.869C285.453 360.703 295.898 369.842 295.027 382.463C294.592 396.825 280.231 401.177 268.916 416.844C258.036 432.076 259.776 445.132 257.165 472.114C251.072 535.653 233.229 566.988 239.757 570.034C246.285 573.081 262.823 543.487 305.472 491.698C361.613 424.242 379.456 419.02 388.16 416.844C429.94 407.704 470.848 435.122 473.46 436.863C487.386 446.437 486.08 450.354 501.312 461.669C534.388 487.346 580.084 499.532 584.871 491.263C593.575 476.901 482.599 388.991 436.468 358.527C417.754 346.341 405.133 340.249 389.031 322.841C372.493 304.562 368.141 291.071 355.085 289.765C340.288 288.024 323.316 303.256 324.621 312.396C325.492 317.183 330.714 317.183 332.89 322.841C339.418 336.767 312.436 365.49 304.602 362.009C300.685 359.833 302.861 349.823 298.074 348.517ZM400.346 141.797C403.392 154.853 416.448 157.464 413.837 169.65C412.967 174.002 418.624 180.965 422.976 184.447C460.839 212.735 503.488 232.754 548.314 247.551C553.536 249.292 560.064 247.986 566.157 247.986C566.592 243.199 568.333 239.717 567.463 237.541C561.805 224.05 556.583 210.559 549.184 197.938C536.128 175.308 521.767 153.548 507.405 131.788C501.748 123.084 495.655 114.815 488.692 106.981C478.682 95.2307 471.719 95.231 459.533 106.111C454.746 110.463 450.394 114.815 446.477 119.602C438.208 128.741 430.375 138.316 422.976 147.455C415.143 145.279 409.05 143.973 400.346 141.797Z" fill="#37b067"/>
<path d="M474.765 925.157C461.274 923.417 461.274 914.713 429.504 891.647C396.864 868.146 384.244 868.146 381.632 855.525C379.021 844.645 386.42 834.636 417.319 800.69C478.247 733.234 485.645 731.058 492.608 731.058C520.896 731.929 530.036 769.791 567.028 779.365C571.38 780.671 584.001 783.282 594.445 794.162C596.621 796.338 602.714 802.431 604.02 808.959C607.936 824.626 587.047 840.294 545.268 876.415C496.96 917.324 489.562 926.898 474.765 925.157Z" fill="#37b067"/>
</svg>
